# xmcd
#
# Track frame offsets: 
#        150
#        19347
#        87025
#        113754
#        131122
#        178523
#        225529
#        279515
#
# Disc length: 4142 seconds
#
# Revision: 3
# Processed by: cddbd v1.5.2PL0 Copyright (c) Steve Scherf et al.
# Submitted via: ExactAudioCopy v1.0b2
#
DISCID=62102c08
DTITLE=Derek Bailey - Evan Parker - The London Concert
DYEAR=2005
DGENRE=Free Jazz
TTITLE0=First Half Solo
TTITLE1=Part 1
TTITLE2=Part 1A
TTITLE3=Part 2
TTITLE4=Part 2A
TTITLE5=Second Half Solos
TTITLE6=Part 3
TTITLE7=Part 4
EXTD=YEAR: 1975
EXTT0=
EXTT1=
EXTT2=
EXTT3=
EXTT4=
EXTT5=
EXTT6=
EXTT7=
PLAYORDER=
